<?xml version="1.0" encoding="UTF-8"?>
<!DOCTYPE svg PUBLIC "-//W3C//DTD SVG 1.1//EN"
    "http://www.w3.org/Graphics/SVG/1.1/DTD/svg11.dtd"><svg stroke="rgb(0,0,0)" xmlns="http://www.w3.org/2000/svg" font-size="1" width="400.0000" stroke-opacity="1" xmlns:xlink="http://www.w3.org/1999/xlink" viewBox="0.0 0.0 400.0 208.00000000000003" height="208.0000" version="1.1"><defs></defs><g fill="rgb(0,0,0)" stroke="rgb(0,0,0)" stroke-linecap="butt" stroke-width="1.1537764081484765" stroke-miterlimit="10.0" fill-opacity="0.0" stroke-opacity="1.0" stroke-linejoin="miter"><path d="M 133.3333,74.6667 l 66.6667,-66.6667 l 166.6667,166.6667 M 66.6667,141.3333 l 66.6667,-66.6667 l 100.0000,100.0000 M 33.3333,174.6667 l 33.3333,-33.3333 l 66.6667,66.6667 M 0.0000,208.0000 l 33.3333,-33.3333 l 33.3333,33.3333 M 0.0000,208.0000 M 66.6667,208.0000 M 133.3333,208.0000 M 200.0000,208.0000 l 33.3333,-33.3333 l 33.3333,33.3333 M 200.0000,208.0000 M 266.6667,208.0000 M 333.3333,208.0000 l 33.3333,-33.3333 l 33.3333,33.3333 M 333.3333,208.0000 M 400.0000,208.0000 "/></g><g fill="rgb(255,0,0)" stroke="rgb(0,0,0)" stroke-linecap="butt" stroke-width="0.0" stroke-miterlimit="10.0" fill-opacity="1.0" stroke-opacity="1.0" stroke-linejoin="miter"><path d="M 208.0000,8.0000 c 0.0000,-4.4183 -3.5817,-8.0000 -8.0000 -8.0000c -4.4183,-0.0000 -8.0000,3.5817 -8.0000 8.0000c -0.0000,4.4183 3.5817,8.0000 8.0000 8.0000c 4.4183,0.0000 8.0000,-3.5817 8.0000 -8.0000Z"/></g></svg>